<?xml version="1.0" encoding="UTF-8" standalone="no"?>
<svg width="370" height="700" xmlns="http://www.w3.org/2000/svg">
  <rect width="100%" height="100%" fill="white"/>
  <circle cx="3.00" cy="-2.00" r="3.00" fill="none" stroke="red" stroke-width="1.00"/>
  <path d="M 60.00,200.00 L 80.00,100.00" fill="none" stroke="#000000" stroke-width="2.00" stroke-linecap="round" stroke-linejoin="round"/>
  <path d="M 80.00,100.00 L 120.00,100.00" fill="none" stroke="#000000" stroke-width="2.00" stroke-linecap="round" stroke-linejoin="round"/>
  <path d="M 120.00,100.00 L 120.00,200.00" fill="none" stroke="#000000" stroke-width="2.00" stroke-linecap="round" stroke-linejoin="round"/>
  <path d="M 120.00,200.00 L 160.00,200.00" fill="none" stroke="#000000" stroke-width="2.00" stroke-linecap="round" stroke-linejoin="round"/>
  <circle cx="252.00" cy="42.00" r="32.31" fill="none" stroke="#000000" stroke-width="2.00"/>
  <circle cx="264.00" cy="114.00" r="30.59" fill="none" stroke="#000000" stroke-width="2.00"/>
  <rect x="216.00" y="180.00" width="132.00" height="36.00" fill="none" stroke="#000000" stroke-width="2.00"/>
  <path d="M 60.00,221.26 L 81.42,233.63 L 81.42,258.37 L 60.00,270.74 L 38.58,258.37 L 38.58,233.63 L 60.00,221.26 Z" fill="none" stroke="#000000" stroke-width="2.00" stroke-linecap="round" stroke-linejoin="round"/>
  <path d="M 186.00,221.73 L 243.39,254.86 L 243.39,321.14 L 186.00,354.27 L 128.61,321.14 L 128.61,254.86 L 186.00,221.73 Z" fill="none" stroke="#000000" stroke-width="2.00" stroke-linecap="round" stroke-linejoin="round"/>
  <path d="M 120.00,396.00 A 30.00,30.00 0 1 0 108.00,420.00" fill="none" stroke="#000000" stroke-width="2.00" stroke-linecap="round" stroke-linejoin="round"/>
  <path d="M 350.00,300.00 A 50.00,50.00 0 0 0 300.00,250.00" fill="none" stroke="#000000" stroke-width="2.00" stroke-linecap="round" stroke-linejoin="round"/>
  <path d="M 200.00,400.00 L 200.00,400.00 L 200.00,400.00 L 200.00,400.00 L 200.00,400.00 L 200.00,400.00 L 200.00,400.00 L 200.00,400.00 L 200.00,400.00 L 200.00,400.00 L 200.00,400.00 L 200.00,400.00 L 200.00,400.00 L 200.00,400.00 L 200.00,400.00 L 200.00,400.00 L 200.00,400.00 L 200.00,400.00 L 200.00,400.00 L 200.00,400.00 L 200.00,400.00 L 200.00,400.00 L 200.00,400.00 L 200.00,400.00 L 200.00,400.00 L 200.00,400.00 L 200.00,400.00 L 200.00,450.00 L 200.00,450.00 L 200.00,450.00 L 200.00,450.00 L 200.00,450.00 L 200.00,400.00 L 200.00,400.00 L 200.00,400.00 L 200.00,400.00 L 200.00,400.00 L 250.00,400.00 L 250.00,400.00 L 250.00,400.00 L 250.00,400.00 L 250.00,400.00 L 250.00,400.00 L 250.00,400.00 L 250.00,400.00 L 250.00,400.00 L 250.00,400.00 L 250.00,400.00 L 250.00,400.00 L 250.00,400.00 L 250.00,400.00 L 250.00,400.00 L 250.00,400.00 L 250.00,400.00 L 250.00,400.00 L 250.00,400.00 L 250.00,400.00 L 250.00,400.00 L 250.00,400.00 L 250.00,400.00 L 250.00,400.00 L 250.00,400.00 L 250.00,400.00 L 250.00,400.00 L 250.00,400.00 L 250.00,400.00 L 250.00,400.00 L 250.00,400.00 L 250.00,400.00 L 250.00,400.00 L 250.00,400.00 L 250.00,400.00 L 300.00,400.00 L 300.00,400.00 L 300.00,400.00 L 300.00,400.00 L 300.00,400.00 L 300.00,400.00 L 300.00,400.00 L 300.00,400.00 L 300.00,400.00 L 300.00,400.00 L 300.00,400.00 L 300.00,400.00 L 300.00,400.00 L 300.00,400.00 L 300.00,400.00 L 300.00,400.00 L 300.00,400.00 L 300.00,400.00 L 300.00,400.00 L 300.00,400.00 L 300.00,350.00 L 300.00,350.00 L 300.00,350.00 L 300.00,350.00 L 300.00,350.00 L 300.00,350.00 L 300.00,350.00 L 300.00,350.00 L 300.00,350.00 L 300.00,350.00 L 300.00,350.00 L 300.00,350.00 L 300.00,350.00 L 300.00,350.00 L 300.00,350.00 L 300.00,350.00 L 300.00,350.00 L 300.00,350.00 L 300.00,350.00 L 300.00,350.00 L 300.00,350.00 L 300.00,350.00 L 300.00,350.00 L 300.00,350.00 L 300.00,350.00 L 300.00,350.00 L 300.00,350.00 L 250.00,350.00 L 250.00,350.00 L 250.00,350.00 L 250.00,350.00 L 250.00,350.00 L 250.00,350.00 L 250.00,350.00 L 250.00,350.00 L 250.00,350.00 L 250.00,350.00 L 250.00,350.00 L 250.00,350.00 L 250.00,350.00 L 250.00,350.00 L 250.00,350.00 L 250.00,350.00 L 250.00,350.00 L 250.00,350.00 L 250.00,350.00 L 250.00,350.00 L 250.00,350.00 L 250.00,350.00 L 250.00,350.00 L 250.00,350.00 L 250.00,350.00 L 250.00,350.00 L 250.00,350.00 L 250.00,350.00 L 250.00,350.00 L 250.00,350.00 L 250.00,350.00 L 250.00,350.00 L 250.00,350.00 L 250.00,350.00 L 250.00,350.00 L 250.00,350.00 L 250.00,350.00 L 250.00,400.00 L 250.00,400.00 L 250.00,400.00 L 250.00,400.00 L 250.00,400.00 L 250.00,400.00 L 250.00,400.00 L 250.00,400.00 L 250.00,400.00 L 250.00,400.00 L 250.00,400.00 L 250.00,400.00 L 250.00,400.00 L 250.00,400.00 L 250.00,400.00 L 250.00,400.00 L 250.00,400.00 L 250.00,400.00 L 250.00,400.00 L 250.00,400.00 L 250.00,400.00 L 300.00,400.00 L 300.00,400.00 L 300.00,400.00 L 300.00,400.00 L 300.00,400.00 L 300.00,400.00 L 300.00,400.00 L 300.00,400.00 L 300.00,400.00 L 300.00,400.00 L 300.00,400.00 L 300.00,400.00 L 300.00,400.00 L 300.00,400.00 L 300.00,400.00 L 300.00,400.00 L 300.00,400.00 L 300.00,400.00 L 350.00,400.00 L 350.00,400.00 L 350.00,400.00 L 350.00,400.00 L 350.00,400.00 L 350.00,400.00 L 350.00,400.00 L 350.00,400.00 L 350.00,400.00 L 350.00,400.00 L 350.00,400.00 L 350.00,400.00 L 350.00,400.00 L 350.00,400.00 L 350.00,400.00" fill="none" stroke="#000000" stroke-width="2.00" stroke-linecap="round" stroke-linejoin="round"/>
  <path d="M 350.00,350.00 L 300.00,350.00 L 300.00,350.00 L 300.00,350.00 L 300.00,350.00 L 300.00,350.00 L 300.00,350.00 L 300.00,350.00 L 300.00,350.00 L 300.00,350.00 L 300.00,350.00 L 300.00,350.00 L 300.00,350.00 L 300.00,350.00 L 300.00,350.00 L 300.00,350.00 L 300.00,400.00 L 300.00,400.00 L 300.00,400.00 L 300.00,400.00 L 300.00,400.00 L 300.00,400.00 L 300.00,400.00 L 300.00,400.00 L 300.00,400.00 L 300.00,400.00 L 300.00,400.00 L 300.00,400.00 L 300.00,400.00" fill="none" stroke="#000000" stroke-width="2.00" stroke-linecap="round" stroke-linejoin="round"/>
  <path d="M 260.80,449.60 L 260.00,449.60 L 260.00,451.20 L 260.00,452.00 L 260.00,452.80 L 259.20,455.20 L 257.60,456.80 L 256.80,459.20 L 255.20,460.00 L 252.00,463.20 L 248.00,464.80 L 241.60,465.60 L 236.00,467.20 L 230.40,467.20 L 224.00,467.20 L 220.00,467.20 L 216.00,465.60 L 212.80,464.00 L 211.20,463.20 L 211.20,462.40 L 209.60,460.80 L 209.60,459.20 L 209.60,456.80 L 209.60,455.20 L 209.60,452.80 L 209.60,452.00 L 209.60,451.20 L 209.60,449.60 L 209.60,448.80 L 209.60,448.00 L 209.60,447.20 L 209.60,444.00 L 209.60,443.20 L 212.00,440.80 L 212.80,439.20 L 214.40,435.20 L 215.20,432.00 L 216.00,430.40 L 216.00,428.00 L 216.80,427.20 L 217.60,424.80 L 219.20,424.80 L 220.00,424.00 L 222.40,423.20 L 223.20,422.40 L 224.00,422.40 L 225.60,422.40 L 228.00,422.40 L 231.20,422.40 L 232.80,422.40 L 236.00,422.40 L 239.20,423.20 L 241.60,424.00 L 244.00,424.80 L 247.20,424.80 L 248.80,425.60 L 251.20,427.20 L 252.00,427.20 L 254.40,427.20 L 255.20,427.20 L 256.00,428.00 L 256.00,428.80 L 256.80,428.80 L 256.80,430.40 L 257.60,431.20 L 259.20,432.00 L 259.20,433.60 L 260.00,436.00 L 260.80,438.40 L 260.80,439.20 L 262.40,440.80 L 263.20,440.80 L 263.20,441.60 L 264.00,443.20 L 265.60,443.20 L 268.00,443.20 L 270.40,443.20 L 272.80,441.60 L 278.40,440.00 L 280.80,439.20 L 284.80,438.40 L 288.80,436.00 L 291.20,435.20 L 292.80,435.20 L 294.40,433.60 L 296.00,432.80 L 296.00,432.00 L 296.00,431.20 L 296.00,428.80 L 296.00,427.20 L 296.00,422.40 L 299.20,416.80 L 299.20,416.80" fill="none" stroke="#000000" stroke-width="2.00" stroke-linecap="round" stroke-linejoin="round"/>
  <path d="M 180.00,440.00 L 180.00,440.00 L 180.00,440.00 L 180.00,440.00 L 180.00,440.00 L 180.00,440.00 L 170.00,440.00 L 170.00,440.00 L 170.00,440.00 L 170.00,440.00 L 170.00,440.00 L 170.00,440.00 L 170.00,440.00 L 160.00,430.00 L 160.00,430.00 L 160.00,430.00 L 160.00,430.00 L 160.00,430.00 L 160.00,430.00 L 160.00,430.00 L 160.00,430.00 L 160.00,430.00 L 160.00,430.00 L 160.00,420.00 L 160.00,420.00 L 160.00,420.00 L 160.00,420.00 L 160.00,420.00 L 160.00,420.00 L 160.00,420.00 L 160.00,420.00 L 160.00,420.00 L 160.00,420.00 L 160.00,420.00 L 160.00,420.00 L 160.00,420.00 L 160.00,420.00 L 160.00,420.00 L 150.00,420.00 L 150.00,420.00 L 150.00,420.00 L 150.00,420.00 L 150.00,420.00 L 150.00,420.00 L 150.00,420.00 L 150.00,430.00 L 150.00,430.00 L 150.00,430.00 L 140.00,440.00 L 140.00,440.00 L 140.00,440.00 L 140.00,440.00 L 140.00,450.00 L 140.00,450.00 L 140.00,450.00 L 140.00,460.00 L 140.00,460.00 L 140.00,460.00 L 140.00,460.00 L 140.00,460.00 L 140.00,460.00 L 140.00,460.00 L 140.00,470.00 L 140.00,470.00 L 140.00,470.00 L 140.00,470.00 L 140.00,470.00 L 140.00,470.00 L 140.00,470.00 L 140.00,470.00 L 140.00,470.00 L 140.00,470.00 L 140.00,480.00 L 140.00,480.00 L 140.00,480.00 L 140.00,480.00 L 140.00,480.00 L 140.00,480.00 L 140.00,480.00 L 140.00,480.00 L 140.00,480.00 L 140.00,480.00 L 140.00,480.00 L 140.00,480.00 L 140.00,480.00 L 150.00,480.00 L 150.00,480.00 L 150.00,480.00 L 150.00,480.00 L 150.00,480.00 L 150.00,480.00 L 160.00,480.00 L 160.00,480.00 L 160.00,480.00 L 160.00,480.00 L 160.00,480.00 L 160.00,480.00 L 160.00,480.00 L 170.00,480.00 L 170.00,480.00 L 170.00,480.00 L 170.00,480.00 L 170.00,480.00 L 170.00,480.00 L 170.00,480.00 L 180.00,480.00 L 180.00,480.00 L 180.00,480.00 L 180.00,480.00 L 180.00,480.00 L 180.00,470.00 L 180.00,470.00 L 180.00,470.00 L 180.00,470.00 L 180.00,470.00 L 180.00,470.00 L 180.00,460.00 L 180.00,460.00 L 180.00,460.00 L 180.00,460.00 L 180.00,460.00 L 180.00,460.00 L 180.00,460.00 L 180.00,460.00 L 180.00,460.00 L 180.00,450.00 L 180.00,450.00 L 180.00,450.00 L 180.00,450.00 L 180.00,450.00 L 180.00,450.00 L 180.00,450.00 L 180.00,450.00 L 180.00,450.00 L 180.00,440.00 L 180.00,440.00 L 180.00,440.00 L 180.00,440.00 L 180.00,440.00 L 180.00,440.00" fill="none" stroke="#000000" stroke-width="2.00" stroke-linecap="round" stroke-linejoin="round"/>
  <path d="M 69.00,568.00 L 65.00,568.00" fill="none" stroke="#000000" stroke-width="2.00" stroke-linecap="round" stroke-linejoin="round"/>
  <path d="M 65.00,568.00 L 63.00,568.00" fill="none" stroke="#000000" stroke-width="2.00" stroke-linecap="round" stroke-linejoin="round"/>
  <path d="M 63.00,568.00 L 60.00,568.00" fill="none" stroke="#000000" stroke-width="2.00" stroke-linecap="round" stroke-linejoin="round"/>
  <path d="M 60.00,568.00 L 58.00,566.00" fill="none" stroke="#000000" stroke-width="2.00" stroke-linecap="round" stroke-linejoin="round"/>
  <path d="M 58.00,566.00 L 57.00,564.00" fill="none" stroke="#000000" stroke-width="2.00" stroke-linecap="round" stroke-linejoin="round"/>
  <path d="M 57.00,564.00 L 55.00,561.00" fill="none" stroke="#000000" stroke-width="2.00" stroke-linecap="round" stroke-linejoin="round"/>
  <path d="M 55.00,561.00 L 54.00,556.00" fill="none" stroke="#000000" stroke-width="2.00" stroke-linecap="round" stroke-linejoin="round"/>
  <path d="M 54.00,556.00 L 54.00,552.00" fill="none" stroke="#000000" stroke-width="2.00" stroke-linecap="round" stroke-linejoin="round"/>
  <path d="M 54.00,552.00 L 54.00,547.00" fill="none" stroke="#000000" stroke-width="2.00" stroke-linecap="round" stroke-linejoin="round"/>
  <path d="M 54.00,547.00 L 54.00,541.00" fill="none" stroke="#000000" stroke-width="2.00" stroke-linecap="round" stroke-linejoin="round"/>
  <path d="M 54.00,541.00 L 54.00,537.00" fill="none" stroke="#000000" stroke-width="2.00" stroke-linecap="round" stroke-linejoin="round"/>
  <path d="M 54.00,537.00 L 57.00,532.00" fill="none" stroke="#000000" stroke-width="2.00" stroke-linecap="round" stroke-linejoin="round"/>
  <path d="M 57.00,532.00 L 62.00,529.00" fill="none" stroke="#000000" stroke-width="2.00" stroke-linecap="round" stroke-linejoin="round"/>
  <path d="M 62.00,529.00 L 66.00,526.00" fill="none" stroke="#000000" stroke-width="2.00" stroke-linecap="round" stroke-linejoin="round"/>
  <path d="M 66.00,526.00 L 71.00,524.00" fill="none" stroke="#000000" stroke-width="2.00" stroke-linecap="round" stroke-linejoin="round"/>
  <path d="M 71.00,524.00 L 76.00,523.00" fill="none" stroke="#000000" stroke-width="2.00" stroke-linecap="round" stroke-linejoin="round"/>
  <path d="M 76.00,523.00 L 82.00,522.00" fill="none" stroke="#000000" stroke-width="2.00" stroke-linecap="round" stroke-linejoin="round"/>
  <path d="M 82.00,522.00 L 89.00,522.00" fill="none" stroke="#000000" stroke-width="2.00" stroke-linecap="round" stroke-linejoin="round"/>
  <path d="M 89.00,522.00 L 97.00,525.00" fill="none" stroke="#000000" stroke-width="2.00" stroke-linecap="round" stroke-linejoin="round"/>
  <path d="M 97.00,525.00 L 107.00,530.00" fill="none" stroke="#000000" stroke-width="2.00" stroke-linecap="round" stroke-linejoin="round"/>
  <path d="M 107.00,530.00 L 116.00,534.00" fill="none" stroke="#000000" stroke-width="2.00" stroke-linecap="round" stroke-linejoin="round"/>
  <path d="M 116.00,534.00 L 123.00,539.00" fill="none" stroke="#000000" stroke-width="2.00" stroke-linecap="round" stroke-linejoin="round"/>
  <path d="M 123.00,539.00 L 129.00,545.00" fill="none" stroke="#000000" stroke-width="2.00" stroke-linecap="round" stroke-linejoin="round"/>
  <path d="M 129.00,545.00 L 132.00,549.00" fill="none" stroke="#000000" stroke-width="2.00" stroke-linecap="round" stroke-linejoin="round"/>
  <path d="M 132.00,549.00 L 133.00,552.00" fill="none" stroke="#000000" stroke-width="2.00" stroke-linecap="round" stroke-linejoin="round"/>
  <path d="M 133.00,552.00 L 134.00,556.00" fill="none" stroke="#000000" stroke-width="2.00" stroke-linecap="round" stroke-linejoin="round"/>
  <path d="M 134.00,556.00 L 134.00,561.00" fill="none" stroke="#000000" stroke-width="2.00" stroke-linecap="round" stroke-linejoin="round"/>
  <path d="M 134.00,561.00 L 134.00,564.00" fill="none" stroke="#000000" stroke-width="2.00" stroke-linecap="round" stroke-linejoin="round"/>
  <path d="M 134.00,564.00 L 133.00,566.00" fill="none" stroke="#000000" stroke-width="2.00" stroke-linecap="round" stroke-linejoin="round"/>
  <path d="M 133.00,566.00 L 131.00,567.00" fill="none" stroke="#000000" stroke-width="2.00" stroke-linecap="round" stroke-linejoin="round"/>
  <path d="M 131.00,567.00 L 129.00,567.00" fill="none" stroke="#000000" stroke-width="2.00" stroke-linecap="round" stroke-linejoin="round"/>
  <path d="M 129.00,567.00 L 126.00,567.00" fill="none" stroke="#000000" stroke-width="2.00" stroke-linecap="round" stroke-linejoin="round"/>
  <path d="M 126.00,567.00 L 123.00,565.00" fill="none" stroke="#000000" stroke-width="2.00" stroke-linecap="round" stroke-linejoin="round"/>
  <path d="M 123.00,565.00 L 123.00,562.00" fill="none" stroke="#000000" stroke-width="2.00" stroke-linecap="round" stroke-linejoin="round"/>
  <path d="M 123.00,562.00 L 122.00,557.00" fill="none" stroke="#000000" stroke-width="2.00" stroke-linecap="round" stroke-linejoin="round"/>
  <path d="M 122.00,557.00 L 122.00,552.00" fill="none" stroke="#000000" stroke-width="2.00" stroke-linecap="round" stroke-linejoin="round"/>
  <path d="M 122.00,552.00 L 124.00,547.00" fill="none" stroke="#000000" stroke-width="2.00" stroke-linecap="round" stroke-linejoin="round"/>
  <path d="M 124.00,547.00 L 127.00,542.00" fill="none" stroke="#000000" stroke-width="2.00" stroke-linecap="round" stroke-linejoin="round"/>
  <path d="M 127.00,542.00 L 132.00,539.00" fill="none" stroke="#000000" stroke-width="2.00" stroke-linecap="round" stroke-linejoin="round"/>
  <path d="M 132.00,539.00 L 140.00,534.00" fill="none" stroke="#000000" stroke-width="2.00" stroke-linecap="round" stroke-linejoin="round"/>
  <path d="M 140.00,534.00 L 147.00,530.00" fill="none" stroke="#000000" stroke-width="2.00" stroke-linecap="round" stroke-linejoin="round"/>
  <path d="M 147.00,530.00 L 154.00,527.00" fill="none" stroke="#000000" stroke-width="2.00" stroke-linecap="round" stroke-linejoin="round"/>
  <path d="M 154.00,527.00 L 162.00,525.00" fill="none" stroke="#000000" stroke-width="2.00" stroke-linecap="round" stroke-linejoin="round"/>
  <path d="M 162.00,525.00 L 176.00,524.00" fill="none" stroke="#000000" stroke-width="2.00" stroke-linecap="round" stroke-linejoin="round"/>
  <path d="M 176.00,524.00 L 184.00,524.00" fill="none" stroke="#000000" stroke-width="2.00" stroke-linecap="round" stroke-linejoin="round"/>
  <path d="M 184.00,524.00 L 191.00,525.00" fill="none" stroke="#000000" stroke-width="2.00" stroke-linecap="round" stroke-linejoin="round"/>
  <path d="M 191.00,525.00 L 197.00,527.00" fill="none" stroke="#000000" stroke-width="2.00" stroke-linecap="round" stroke-linejoin="round"/>
  <path d="M 197.00,527.00 L 201.00,530.00" fill="none" stroke="#000000" stroke-width="2.00" stroke-linecap="round" stroke-linejoin="round"/>
  <path d="M 201.00,530.00 L 205.00,533.00" fill="none" stroke="#000000" stroke-width="2.00" stroke-linecap="round" stroke-linejoin="round"/>
  <path d="M 205.00,533.00 L 209.00,537.00" fill="none" stroke="#000000" stroke-width="2.00" stroke-linecap="round" stroke-linejoin="round"/>
  <path d="M 209.00,537.00 L 211.00,542.00" fill="none" stroke="#000000" stroke-width="2.00" stroke-linecap="round" stroke-linejoin="round"/>
  <path d="M 211.00,542.00 L 213.00,546.00" fill="none" stroke="#000000" stroke-width="2.00" stroke-linecap="round" stroke-linejoin="round"/>
  <path d="M 213.00,546.00 L 214.00,549.00" fill="none" stroke="#000000" stroke-width="2.00" stroke-linecap="round" stroke-linejoin="round"/>
  <path d="M 214.00,549.00 L 215.00,552.00" fill="none" stroke="#000000" stroke-width="2.00" stroke-linecap="round" stroke-linejoin="round"/>
  <path d="M 215.00,552.00 L 215.00,553.00" fill="none" stroke="#000000" stroke-width="2.00" stroke-linecap="round" stroke-linejoin="round"/>
  <path d="M 215.00,553.00 L 215.00,554.00" fill="none" stroke="#000000" stroke-width="2.00" stroke-linecap="round" stroke-linejoin="round"/>
  <path d="M 215.00,554.00 L 214.00,556.00" fill="none" stroke="#000000" stroke-width="2.00" stroke-linecap="round" stroke-linejoin="round"/>
  <path d="M 214.00,556.00 L 211.00,556.00" fill="none" stroke="#000000" stroke-width="2.00" stroke-linecap="round" stroke-linejoin="round"/>
  <path d="M 211.00,556.00 L 210.00,556.00" fill="none" stroke="#000000" stroke-width="2.00" stroke-linecap="round" stroke-linejoin="round"/>
  <path d="M 210.00,556.00 L 209.00,556.00" fill="none" stroke="#000000" stroke-width="2.00" stroke-linecap="round" stroke-linejoin="round"/>
  <path d="M 209.00,556.00 L 207.00,556.00" fill="none" stroke="#000000" stroke-width="2.00" stroke-linecap="round" stroke-linejoin="round"/>
  <path d="M 207.00,556.00 L 207.00,555.00" fill="none" stroke="#000000" stroke-width="2.00" stroke-linecap="round" stroke-linejoin="round"/>
  <path d="M 207.00,555.00 L 206.00,553.00" fill="none" stroke="#000000" stroke-width="2.00" stroke-linecap="round" stroke-linejoin="round"/>
  <path d="M 206.00,553.00 L 206.00,550.00" fill="none" stroke="#000000" stroke-width="2.00" stroke-linecap="round" stroke-linejoin="round"/>
  <path d="M 206.00,550.00 L 206.00,546.00" fill="none" stroke="#000000" stroke-width="2.00" stroke-linecap="round" stroke-linejoin="round"/>
  <path d="M 206.00,546.00 L 208.00,541.00" fill="none" stroke="#000000" stroke-width="2.00" stroke-linecap="round" stroke-linejoin="round"/>
  <path d="M 208.00,541.00 L 210.00,538.00" fill="none" stroke="#000000" stroke-width="2.00" stroke-linecap="round" stroke-linejoin="round"/>
  <path d="M 210.00,538.00 L 219.00,531.00" fill="none" stroke="#000000" stroke-width="2.00" stroke-linecap="round" stroke-linejoin="round"/>
  <path d="M 219.00,531.00 L 223.00,528.00" fill="none" stroke="#000000" stroke-width="2.00" stroke-linecap="round" stroke-linejoin="round"/>
  <path d="M 223.00,528.00 L 228.00,526.00" fill="none" stroke="#000000" stroke-width="2.00" stroke-linecap="round" stroke-linejoin="round"/>
  <path d="M 228.00,526.00 L 231.00,525.00" fill="none" stroke="#000000" stroke-width="2.00" stroke-linecap="round" stroke-linejoin="round"/>
  <path d="M 231.00,525.00 L 234.00,525.00" fill="none" stroke="#000000" stroke-width="2.00" stroke-linecap="round" stroke-linejoin="round"/>
  <path d="M 234.00,525.00 L 237.00,525.00" fill="none" stroke="#000000" stroke-width="2.00" stroke-linecap="round" stroke-linejoin="round"/>
  <path d="M 237.00,525.00 L 240.00,525.00" fill="none" stroke="#000000" stroke-width="2.00" stroke-linecap="round" stroke-linejoin="round"/>
  <path d="M 240.00,525.00 L 243.00,528.00" fill="none" stroke="#000000" stroke-width="2.00" stroke-linecap="round" stroke-linejoin="round"/>
  <path d="M 243.00,528.00 L 246.00,530.00" fill="none" stroke="#000000" stroke-width="2.00" stroke-linecap="round" stroke-linejoin="round"/>
  <path d="M 246.00,530.00 L 249.00,533.00" fill="none" stroke="#000000" stroke-width="2.00" stroke-linecap="round" stroke-linejoin="round"/>
  <path d="M 249.00,533.00 L 253.00,537.00" fill="none" stroke="#000000" stroke-width="2.00" stroke-linecap="round" stroke-linejoin="round"/>
  <path d="M 253.00,537.00 L 258.00,543.00" fill="none" stroke="#000000" stroke-width="2.00" stroke-linecap="round" stroke-linejoin="round"/>
  <path d="M 258.00,543.00 L 263.00,549.00" fill="none" stroke="#000000" stroke-width="2.00" stroke-linecap="round" stroke-linejoin="round"/>
  <path d="M 263.00,549.00 L 268.00,557.00" fill="none" stroke="#000000" stroke-width="2.00" stroke-linecap="round" stroke-linejoin="round"/>
  <path d="M 268.00,557.00 L 271.00,561.00" fill="none" stroke="#000000" stroke-width="2.00" stroke-linecap="round" stroke-linejoin="round"/>
  <path d="M 271.00,561.00 L 274.00,565.00" fill="none" stroke="#000000" stroke-width="2.00" stroke-linecap="round" stroke-linejoin="round"/>
  <path d="M 274.00,565.00 L 275.00,568.00" fill="none" stroke="#000000" stroke-width="2.00" stroke-linecap="round" stroke-linejoin="round"/>
  <path d="M 275.00,568.00 L 275.00,570.00" fill="none" stroke="#000000" stroke-width="2.00" stroke-linecap="round" stroke-linejoin="round"/>
  <path d="M 275.00,570.00 L 275.00,571.00" fill="none" stroke="#000000" stroke-width="2.00" stroke-linecap="round" stroke-linejoin="round"/>
  <path d="M 275.00,571.00 L 275.00,572.00" fill="none" stroke="#000000" stroke-width="2.00" stroke-linecap="round" stroke-linejoin="round"/>
  <path d="M 275.00,572.00 L 273.00,573.00" fill="none" stroke="#000000" stroke-width="2.00" stroke-linecap="round" stroke-linejoin="round"/>
  <path d="M 273.00,573.00 L 271.00,573.00" fill="none" stroke="#000000" stroke-width="2.00" stroke-linecap="round" stroke-linejoin="round"/>
  <path d="M 271.00,573.00 L 268.00,572.00" fill="none" stroke="#000000" stroke-width="2.00" stroke-linecap="round" stroke-linejoin="round"/>
  <path d="M 268.00,572.00 L 266.00,571.00" fill="none" stroke="#000000" stroke-width="2.00" stroke-linecap="round" stroke-linejoin="round"/>
  <path d="M 266.00,571.00 L 263.00,567.00" fill="none" stroke="#000000" stroke-width="2.00" stroke-linecap="round" stroke-linejoin="round"/>
  <path d="M 263.00,567.00 L 262.00,564.00" fill="none" stroke="#000000" stroke-width="2.00" stroke-linecap="round" stroke-linejoin="round"/>
  <path d="M 262.00,564.00 L 262.00,560.00" fill="none" stroke="#000000" stroke-width="2.00" stroke-linecap="round" stroke-linejoin="round"/>
  <path d="M 262.00,560.00 L 262.00,554.00" fill="none" stroke="#000000" stroke-width="2.00" stroke-linecap="round" stroke-linejoin="round"/>
  <path d="M 262.00,554.00 L 264.00,550.00" fill="none" stroke="#000000" stroke-width="2.00" stroke-linecap="round" stroke-linejoin="round"/>
  <path d="M 264.00,550.00 L 266.00,545.00" fill="none" stroke="#000000" stroke-width="2.00" stroke-linecap="round" stroke-linejoin="round"/>
  <path d="M 266.00,545.00 L 270.00,541.00" fill="none" stroke="#000000" stroke-width="2.00" stroke-linecap="round" stroke-linejoin="round"/>
  <path d="M 270.00,541.00 L 275.00,539.00" fill="none" stroke="#000000" stroke-width="2.00" stroke-linecap="round" stroke-linejoin="round"/>
  <path d="M 275.00,539.00 L 279.00,537.00" fill="none" stroke="#000000" stroke-width="2.00" stroke-linecap="round" stroke-linejoin="round"/>
  <path d="M 279.00,537.00 L 284.00,536.00" fill="none" stroke="#000000" stroke-width="2.00" stroke-linecap="round" stroke-linejoin="round"/>
  <path d="M 284.00,536.00 L 287.00,535.00" fill="none" stroke="#000000" stroke-width="2.00" stroke-linecap="round" stroke-linejoin="round"/>
  <path d="M 287.00,535.00 L 289.00,535.00" fill="none" stroke="#000000" stroke-width="2.00" stroke-linecap="round" stroke-linejoin="round"/>
  <path d="M 289.00,535.00 L 293.00,535.00" fill="none" stroke="#000000" stroke-width="2.00" stroke-linecap="round" stroke-linejoin="round"/>
  <path d="M 293.00,535.00 L 295.00,536.00" fill="none" stroke="#000000" stroke-width="2.00" stroke-linecap="round" stroke-linejoin="round"/>
  <path d="M 295.00,536.00 L 298.00,539.00" fill="none" stroke="#000000" stroke-width="2.00" stroke-linecap="round" stroke-linejoin="round"/>
  <path d="M 298.00,539.00 L 299.00,541.00" fill="none" stroke="#000000" stroke-width="2.00" stroke-linecap="round" stroke-linejoin="round"/>
  <path d="M 299.00,541.00 L 301.00,544.00" fill="none" stroke="#000000" stroke-width="2.00" stroke-linecap="round" stroke-linejoin="round"/>
  <path d="M 301.00,544.00 L 302.00,547.00" fill="none" stroke="#000000" stroke-width="2.00" stroke-linecap="round" stroke-linejoin="round"/>
  <path d="M 302.00,547.00 L 304.00,552.00" fill="none" stroke="#000000" stroke-width="2.00" stroke-linecap="round" stroke-linejoin="round"/>
  <path d="M 304.00,552.00 L 305.00,555.00" fill="none" stroke="#000000" stroke-width="2.00" stroke-linecap="round" stroke-linejoin="round"/>
  <path d="M 305.00,555.00 L 307.00,559.00" fill="none" stroke="#000000" stroke-width="2.00" stroke-linecap="round" stroke-linejoin="round"/>
  <path d="M 307.00,559.00 L 308.00,564.00" fill="none" stroke="#000000" stroke-width="2.00" stroke-linecap="round" stroke-linejoin="round"/>
  <path d="M 308.00,564.00 L 310.00,568.00" fill="none" stroke="#000000" stroke-width="2.00" stroke-linecap="round" stroke-linejoin="round"/>
  <path d="M 310.00,568.00 L 310.00,574.00" fill="none" stroke="#000000" stroke-width="2.00" stroke-linecap="round" stroke-linejoin="round"/>
  <path d="M 310.00,574.00 L 310.00,576.00" fill="none" stroke="#000000" stroke-width="2.00" stroke-linecap="round" stroke-linejoin="round"/>
  <path d="M 310.00,576.00 L 310.00,577.00" fill="none" stroke="#000000" stroke-width="2.00" stroke-linecap="round" stroke-linejoin="round"/>
  <path d="M 310.00,577.00 L 310.00,578.00" fill="none" stroke="#000000" stroke-width="2.00" stroke-linecap="round" stroke-linejoin="round"/>
  <path d="M 310.00,578.00 L 307.00,578.00" fill="none" stroke="#000000" stroke-width="2.00" stroke-linecap="round" stroke-linejoin="round"/>
  <path d="M 307.00,578.00 L 305.00,578.00" fill="none" stroke="#000000" stroke-width="2.00" stroke-linecap="round" stroke-linejoin="round"/>
  <path d="M 305.00,578.00 L 304.00,576.00" fill="none" stroke="#000000" stroke-width="2.00" stroke-linecap="round" stroke-linejoin="round"/>
  <path d="M 304.00,576.00 L 302.00,576.00" fill="none" stroke="#000000" stroke-width="2.00" stroke-linecap="round" stroke-linejoin="round"/>
  <path d="M 302.00,576.00 L 302.00,574.00" fill="none" stroke="#000000" stroke-width="2.00" stroke-linecap="round" stroke-linejoin="round"/>
  <path d="M 302.00,574.00 L 300.00,573.00" fill="none" stroke="#000000" stroke-width="2.00" stroke-linecap="round" stroke-linejoin="round"/>
  <path d="M 300.00,573.00 L 300.00,572.00" fill="none" stroke="#000000" stroke-width="2.00" stroke-linecap="round" stroke-linejoin="round"/>
  <path d="M 300.00,572.00 L 300.00,571.00" fill="none" stroke="#000000" stroke-width="2.00" stroke-linecap="round" stroke-linejoin="round"/>
  <path d="M 146.00,610.00 L 144.00,609.00" fill="none" stroke="#000000" stroke-width="2.00" stroke-linecap="round" stroke-linejoin="round"/>
  <path d="M 144.00,609.00 L 143.00,608.00" fill="none" stroke="#000000" stroke-width="2.00" stroke-linecap="round" stroke-linejoin="round"/>
  <path d="M 143.00,608.00 L 141.00,606.00" fill="none" stroke="#000000" stroke-width="2.00" stroke-linecap="round" stroke-linejoin="round"/>
  <path d="M 141.00,606.00 L 140.00,605.00" fill="none" stroke="#000000" stroke-width="2.00" stroke-linecap="round" stroke-linejoin="round"/>
  <path d="M 140.00,605.00 L 139.00,604.00" fill="none" stroke="#000000" stroke-width="2.00" stroke-linecap="round" stroke-linejoin="round"/>
  <path d="M 139.00,604.00 L 139.00,601.00" fill="none" stroke="#000000" stroke-width="2.00" stroke-linecap="round" stroke-linejoin="round"/>
  <path d="M 139.00,601.00 L 139.00,599.00" fill="none" stroke="#000000" stroke-width="2.00" stroke-linecap="round" stroke-linejoin="round"/>
  <path d="M 139.00,599.00 L 139.00,597.00" fill="none" stroke="#000000" stroke-width="2.00" stroke-linecap="round" stroke-linejoin="round"/>
  <path d="M 139.00,597.00 L 140.00,596.00" fill="none" stroke="#000000" stroke-width="2.00" stroke-linecap="round" stroke-linejoin="round"/>
  <path d="M 140.00,596.00 L 142.00,594.00" fill="none" stroke="#000000" stroke-width="2.00" stroke-linecap="round" stroke-linejoin="round"/>
  <path d="M 142.00,594.00 L 144.00,593.00" fill="none" stroke="#000000" stroke-width="2.00" stroke-linecap="round" stroke-linejoin="round"/>
  <path d="M 144.00,593.00 L 147.00,592.00" fill="none" stroke="#000000" stroke-width="2.00" stroke-linecap="round" stroke-linejoin="round"/>
  <path d="M 147.00,592.00 L 153.00,592.00" fill="none" stroke="#000000" stroke-width="2.00" stroke-linecap="round" stroke-linejoin="round"/>
  <path d="M 153.00,592.00 L 159.00,592.00" fill="none" stroke="#000000" stroke-width="2.00" stroke-linecap="round" stroke-linejoin="round"/>
  <path d="M 159.00,592.00 L 165.00,593.00" fill="none" stroke="#000000" stroke-width="2.00" stroke-linecap="round" stroke-linejoin="round"/>
  <path d="M 165.00,593.00 L 171.00,595.00" fill="none" stroke="#000000" stroke-width="2.00" stroke-linecap="round" stroke-linejoin="round"/>
  <path d="M 171.00,595.00 L 176.00,598.00" fill="none" stroke="#000000" stroke-width="2.00" stroke-linecap="round" stroke-linejoin="round"/>
  <path d="M 176.00,598.00 L 179.00,602.00" fill="none" stroke="#000000" stroke-width="2.00" stroke-linecap="round" stroke-linejoin="round"/>
  <path d="M 179.00,602.00 L 182.00,606.00" fill="none" stroke="#000000" stroke-width="2.00" stroke-linecap="round" stroke-linejoin="round"/>
  <path d="M 182.00,606.00 L 184.00,609.00" fill="none" stroke="#000000" stroke-width="2.00" stroke-linecap="round" stroke-linejoin="round"/>
  <path d="M 184.00,609.00 L 185.00,614.00" fill="none" stroke="#000000" stroke-width="2.00" stroke-linecap="round" stroke-linejoin="round"/>
  <path d="M 185.00,614.00 L 183.00,624.00" fill="none" stroke="#000000" stroke-width="2.00" stroke-linecap="round" stroke-linejoin="round"/>
  <path d="M 183.00,624.00 L 182.00,625.00" fill="none" stroke="#000000" stroke-width="2.00" stroke-linecap="round" stroke-linejoin="round"/>
  <path d="M 182.00,625.00 L 180.00,626.00" fill="none" stroke="#000000" stroke-width="2.00" stroke-linecap="round" stroke-linejoin="round"/>
  <path d="M 180.00,626.00 L 177.00,627.00" fill="none" stroke="#000000" stroke-width="2.00" stroke-linecap="round" stroke-linejoin="round"/>
  <path d="M 177.00,627.00 L 174.00,627.00" fill="none" stroke="#000000" stroke-width="2.00" stroke-linecap="round" stroke-linejoin="round"/>
  <path d="M 174.00,627.00 L 172.00,626.00" fill="none" stroke="#000000" stroke-width="2.00" stroke-linecap="round" stroke-linejoin="round"/>
  <path d="M 172.00,626.00 L 171.00,624.00" fill="none" stroke="#000000" stroke-width="2.00" stroke-linecap="round" stroke-linejoin="round"/>
  <path d="M 171.00,624.00 L 170.00,622.00" fill="none" stroke="#000000" stroke-width="2.00" stroke-linecap="round" stroke-linejoin="round"/>
  <path d="M 170.00,622.00 L 170.00,619.00" fill="none" stroke="#000000" stroke-width="2.00" stroke-linecap="round" stroke-linejoin="round"/>
  <path d="M 170.00,619.00 L 171.00,614.00" fill="none" stroke="#000000" stroke-width="2.00" stroke-linecap="round" stroke-linejoin="round"/>
  <path d="M 171.00,614.00 L 173.00,608.00" fill="none" stroke="#000000" stroke-width="2.00" stroke-linecap="round" stroke-linejoin="round"/>
  <path d="M 173.00,608.00 L 180.00,601.00" fill="none" stroke="#000000" stroke-width="2.00" stroke-linecap="round" stroke-linejoin="round"/>
  <path d="M 180.00,601.00 L 185.00,598.00" fill="none" stroke="#000000" stroke-width="2.00" stroke-linecap="round" stroke-linejoin="round"/>
  <path d="M 185.00,598.00 L 192.00,596.00" fill="none" stroke="#000000" stroke-width="2.00" stroke-linecap="round" stroke-linejoin="round"/>
  <path d="M 192.00,596.00 L 200.00,595.00" fill="none" stroke="#000000" stroke-width="2.00" stroke-linecap="round" stroke-linejoin="round"/>
  <path d="M 200.00,595.00 L 209.00,595.00" fill="none" stroke="#000000" stroke-width="2.00" stroke-linecap="round" stroke-linejoin="round"/>
  <path d="M 209.00,595.00 L 216.00,595.00" fill="none" stroke="#000000" stroke-width="2.00" stroke-linecap="round" stroke-linejoin="round"/>
  <path d="M 216.00,595.00 L 223.00,595.00" fill="none" stroke="#000000" stroke-width="2.00" stroke-linecap="round" stroke-linejoin="round"/>
  <path d="M 223.00,595.00 L 231.00,598.00" fill="none" stroke="#000000" stroke-width="2.00" stroke-linecap="round" stroke-linejoin="round"/>
  <path d="M 231.00,598.00 L 237.00,601.00" fill="none" stroke="#000000" stroke-width="2.00" stroke-linecap="round" stroke-linejoin="round"/>
  <path d="M 237.00,601.00 L 242.00,604.00" fill="none" stroke="#000000" stroke-width="2.00" stroke-linecap="round" stroke-linejoin="round"/>
  <path d="M 242.00,604.00 L 245.00,606.00" fill="none" stroke="#000000" stroke-width="2.00" stroke-linecap="round" stroke-linejoin="round"/>
  <path d="M 245.00,606.00 L 247.00,610.00" fill="none" stroke="#000000" stroke-width="2.00" stroke-linecap="round" stroke-linejoin="round"/>
  <path d="M 247.00,610.00 L 248.00,617.00" fill="none" stroke="#000000" stroke-width="2.00" stroke-linecap="round" stroke-linejoin="round"/>
  <path d="M 248.00,617.00 L 246.00,618.00" fill="none" stroke="#000000" stroke-width="2.00" stroke-linecap="round" stroke-linejoin="round"/>
  <path d="M 246.00,618.00 L 243.00,618.00" fill="none" stroke="#000000" stroke-width="2.00" stroke-linecap="round" stroke-linejoin="round"/>
  <path d="M 243.00,618.00 L 241.00,618.00" fill="none" stroke="#000000" stroke-width="2.00" stroke-linecap="round" stroke-linejoin="round"/>
  <path d="M 241.00,618.00 L 239.00,618.00" fill="none" stroke="#000000" stroke-width="2.00" stroke-linecap="round" stroke-linejoin="round"/>
  <path d="M 239.00,618.00 L 238.00,618.00" fill="none" stroke="#000000" stroke-width="2.00" stroke-linecap="round" stroke-linejoin="round"/>
  <path d="M 238.00,618.00 L 238.00,617.00" fill="none" stroke="#000000" stroke-width="2.00" stroke-linecap="round" stroke-linejoin="round"/>
  <path d="M 238.00,617.00 L 239.00,613.00" fill="none" stroke="#000000" stroke-width="2.00" stroke-linecap="round" stroke-linejoin="round"/>
  <path d="M 239.00,613.00 L 241.00,612.00" fill="none" stroke="#000000" stroke-width="2.00" stroke-linecap="round" stroke-linejoin="round"/>
  <path d="M 241.00,612.00 L 244.00,610.00" fill="none" stroke="#000000" stroke-width="2.00" stroke-linecap="round" stroke-linejoin="round"/>
  <path d="M 244.00,610.00 L 247.00,609.00" fill="none" stroke="#000000" stroke-width="2.00" stroke-linecap="round" stroke-linejoin="round"/>
  <path d="M 247.00,609.00 L 250.00,609.00" fill="none" stroke="#000000" stroke-width="2.00" stroke-linecap="round" stroke-linejoin="round"/>
  <path d="M 250.00,609.00 L 255.00,608.00" fill="none" stroke="#000000" stroke-width="2.00" stroke-linecap="round" stroke-linejoin="round"/>
  <path d="M 255.00,608.00 L 259.00,608.00" fill="none" stroke="#000000" stroke-width="2.00" stroke-linecap="round" stroke-linejoin="round"/>
  <path d="M 259.00,608.00 L 262.00,608.00" fill="none" stroke="#000000" stroke-width="2.00" stroke-linecap="round" stroke-linejoin="round"/>
  <path d="M 262.00,608.00 L 264.00,608.00" fill="none" stroke="#000000" stroke-width="2.00" stroke-linecap="round" stroke-linejoin="round"/>
  <path d="M 264.00,608.00 L 265.00,608.00" fill="none" stroke="#000000" stroke-width="2.00" stroke-linecap="round" stroke-linejoin="round"/>
  <path d="M 265.00,608.00 L 266.00,608.00" fill="none" stroke="#000000" stroke-width="2.00" stroke-linecap="round" stroke-linejoin="round"/>
  <path d="M 266.00,608.00 L 267.00,608.00" fill="none" stroke="#000000" stroke-width="2.00" stroke-linecap="round" stroke-linejoin="round"/>
  <path d="M 267.00,608.00 L 268.00,609.00" fill="none" stroke="#000000" stroke-width="2.00" stroke-linecap="round" stroke-linejoin="round"/>
  <path d="M 268.00,609.00 L 269.00,609.00" fill="none" stroke="#000000" stroke-width="2.00" stroke-linecap="round" stroke-linejoin="round"/>
  <path d="M 269.00,609.00 L 270.00,610.00" fill="none" stroke="#000000" stroke-width="2.00" stroke-linecap="round" stroke-linejoin="round"/>
  <path d="M 270.00,610.00 L 271.00,610.00" fill="none" stroke="#000000" stroke-width="2.00" stroke-linecap="round" stroke-linejoin="round"/>
  <path d="M 160.00,70.00 L 160.00,200.00" fill="none" stroke="#000000" stroke-width="2.00" stroke-linecap="round" stroke-linejoin="round"/>
  <path d="M 160.00,70.00 A 50.00,50.00 0 0 0 110.00,20.00" fill="none" stroke="#000000" stroke-width="2.00" stroke-linecap="round" stroke-linejoin="round"/>
  <path d="M 70.00,20.00 L 110.00,20.00" fill="none" stroke="#000000" stroke-width="2.00" stroke-linecap="round" stroke-linejoin="round"/>
  <path d="M 70.00,20.00 A 50.00,50.00 0 0 0 20.00,70.00" fill="none" stroke="#000000" stroke-width="2.00" stroke-linecap="round" stroke-linejoin="round"/>
  <path d="M 20.00,180.00 L 20.00,70.00" fill="none" stroke="#000000" stroke-width="2.00" stroke-linecap="round" stroke-linejoin="round"/>
  <path d="M 40.00,200.00 L 60.00,200.00" fill="none" stroke="#000000" stroke-width="2.00" stroke-linecap="round" stroke-linejoin="round"/>
  <path d="M 20.00,180.00 A 20.00,20.00 0 0 0 40.00,200.00" fill="none" stroke="#000000" stroke-width="2.00" stroke-linecap="round" stroke-linejoin="round"/>
</svg>